<?xml version="1.0" encoding="UTF-8"?>
<svg width="456px" height="80px" viewBox="0 0 456 80" version="1.1" xmlns="http://www.w3.org/2000/svg" xmlns:xlink="http://www.w3.org/1999/xlink">
    <!-- Generator: Sketch 51.3 (57544) - http://www.bohemiancoding.com/sketch -->
    <title>logo-white</title>
    <desc>Created with Sketch.</desc>
    <defs></defs>
    <g id="Page-1" stroke="none" stroke-width="1" fill="none" fill-rule="evenodd">
        <g id="logo-white" fill="#000000" fill-rule="nonzero">
            <path d="M64.2,24.9 L53.5,78.7 L38.7,78.7 L39.7,73.4 C35.233311,77.466687 29.733366,79.5 23.2,79.5 C18.999979,79.5 15.133351,78.533343 11.6,76.6 C8.066649,74.666657 5.2500105,71.8833515 3.15,68.25 C1.0499895,64.6166485 0,60.333358 0,55.4 C0,49.466637 1.3166535,44.1166905 3.95,39.35 C6.5833465,34.5833095 10.166644,30.8500135 14.7,28.15 C19.233356,25.4499865 24.233306,24.1 29.7,24.1 C37.966708,24.1 43.799983,26.799973 47.2,32.2 L48.6,24.9 L64.2,24.9 Z M28,66.6 C31.066682,66.6 33.799988,65.8500075 36.2,64.35 C38.600012,62.8499925 40.46666,60.76668 41.8,58.1 C43.13334,55.43332 43.8,52.366684 43.8,48.9 C43.8,45.233315 42.7166775,42.333344 40.55,40.2 C38.3833225,38.066656 35.366686,37 31.5,37 C28.433318,37 25.700012,37.7499925 23.3,39.25 C20.899988,40.7500075 19.03334,42.83332 17.7,45.5 C16.36666,48.16668 15.7,51.233316 15.7,54.7 C15.7,58.366685 16.7833225,61.266656 18.95,63.4 C21.1166775,65.533344 24.133314,66.6 28,66.6 Z M78.6,24.9 L94.1,24.9 L83.4,78.7 L67.9,78.7 L78.6,24.9 Z M89,17.4 C86.33332,17.4 84.1500085,16.6166745 82.45,15.05 C80.7499915,13.4833255 79.9,11.566678 79.9,9.3 C79.9,6.63332 80.8499905,4.4166755 82.75,2.65 C84.6500095,0.8833245 87.133318,0 90.2,0 C92.933347,0 95.1499915,0.7499925 96.85,2.25 C98.5500085,3.7500075 99.4,5.599989 99.4,7.8 C99.4,10.666681 98.433343,12.9833245 96.5,14.75 C94.566657,16.5166755 92.066682,17.4 89,17.4 Z M138,48.3 L156.5,78.7 L138.4,78.7 L125.6,57.8 L116.1,65.7 L113.5,78.7 L97.9,78.7 L112.7,4.5 L128.3,4.5 L120,46 L145.8,24.9 L166.1,24.9 L138,48.3 Z M190.5,79.5 C185.099973,79.5 180.35002,78.50001 176.25,76.5 C172.149979,74.49999 168.983344,71.6833515 166.75,68.05 C164.516655,64.4166485 163.4,60.200024 163.4,55.4 C163.4,49.466637 164.799986,44.133357 167.6,39.4 C170.400014,34.666643 174.266642,30.933347 179.2,28.2 C184.133358,25.466653 189.699969,24.1 195.9,24.1 C201.366694,24.1 206.133313,25.09999 210.2,27.1 C214.266687,29.1 217.416655,31.9166485 219.65,35.55 C221.883344,39.1833515 223,43.399976 223,48.2 C223,54.133363 221.61668,59.466643 218.85,64.2 C216.083319,68.933357 212.216691,72.666653 207.25,75.4 C202.283309,78.133347 196.700031,79.5 190.5,79.5 Z M191.5,66.6 C194.500015,66.6 197.199988,65.8500075 199.6,64.35 C202.000012,62.8499925 203.86666,60.76668 205.2,58.1 C206.53334,55.43332 207.2,52.366684 207.2,48.9 C207.2,45.233315 206.133344,42.333344 204,40.2 C201.866656,38.066656 198.866686,37 195,37 C191.933318,37 189.200012,37.7499925 186.8,39.25 C184.399988,40.7500075 182.53334,42.83332 181.2,45.5 C179.86666,48.16668 179.2,51.233316 179.2,54.7 C179.2,58.366685 180.283322,61.266656 182.45,63.4 C184.616677,65.533344 187.633314,66.6 191.5,66.6 Z M305.2,25.2 C311.20003,25.2 315.883317,26.7166515 319.25,29.75 C322.616684,32.7833485 324.3,37.099972 324.3,42.7 C324.3,44.233341 324.066669,46.33332 323.6,49 L317.7,78.7 L308.1,78.7 L314,49 C314.333335,47.133324 314.5,45.600006 314.5,44.4 C314.5,40.933316 313.533343,38.300009 311.6,36.5 C309.666657,34.7 306.733353,33.8 302.8,33.8 C297.866642,33.8 293.816682,35.1833195 290.65,37.95 C287.483317,40.7166805 285.333339,44.866639 284.2,50.4 L278.5,78.7 L268.9,78.7 L274.9,49 C275.233335,47.2 275.4,45.7 275.4,44.5 C275.4,41.033316 274.416676,38.3833425 272.45,36.55 C270.483323,34.7166575 267.533353,33.8 263.6,33.8 C258.666642,33.8 254.616683,35.199986 251.45,38 C248.283318,40.800014 246.133339,45.033305 245,50.7 L239.4,78.7 L229.8,78.7 L240.3,25.7 L249.5,25.7 L248.2,32.3 C252.86669,27.566643 258.999962,25.2 266.6,25.2 C270.733354,25.2 274.266652,25.999992 277.2,27.6 C280.133348,29.2 282.26666,31.533318 283.6,34.6 C289.000027,28.333302 296.199955,25.2 305.2,25.2 Z M395.9,25.7 L385.4,78.7 L376.2,78.7 L377.5,72.2 C375.099988,74.466678 372.316683,76.2166605 369.15,77.45 C365.983317,78.6833395 362.533352,79.3 358.8,79.3 C354.266644,79.3 350.233351,78.3833425 346.7,76.55 C343.166649,74.7166575 340.40001,72.066684 338.4,68.6 C336.4,65.133316 335.4,61.06669 335.4,56.4 C335.4,50.39997 336.699987,45.033357 339.3,40.3 C341.900013,35.566643 345.483311,31.86668 350.05,29.2 C354.61669,26.53332 359.733305,25.2 365.4,25.2 C369.933356,25.2 373.816651,25.999992 377.05,27.6 C380.28335,29.2 382.766658,31.566651 384.5,34.7 L386.3,25.7 L395.9,25.7 Z M360.9,70.9 C364.833353,70.9 368.383318,69.9500095 371.55,68.05 C374.716682,66.1499905 377.183325,63.500017 378.95,60.1 C380.716676,56.699983 381.6,52.833355 381.6,48.5 C381.6,43.766643 380.233347,40.100013 377.5,37.5 C374.766653,34.899987 370.866692,33.6 365.8,33.6 C361.866647,33.6 358.333349,34.5499905 355.2,36.45 C352.066651,38.3500095 349.6,40.999983 347.8,44.4 C345.999991,47.800017 345.1,51.666645 345.1,56 C345.1,60.66669 346.483319,64.3166535 349.25,66.95 C352.016681,69.5833465 355.899975,70.9 360.9,70.9 Z M414.2,25.7 L423.8,25.7 L413.3,78.7 L403.7,78.7 L414.2,25.7 Z M421.8,15.5 C420.066658,15.5 418.633339,14.933339 417.5,13.8 C416.366661,12.666661 415.8,11.300008 415.8,9.7 C415.8,7.833324 416.449994,6.2500065 417.75,4.95 C419.050006,3.6499935 420.69999,3 422.7,3 C424.433342,3 425.883328,3.5499945 427.05,4.65 C428.216673,5.7500055 428.8,7.066659 428.8,8.6 C428.8,10.666677 428.150007,12.333327 426.85,13.6 C425.549994,14.866673 423.866677,15.5 421.8,15.5 Z M446.4,4.5 L456,4.5 L441.2,78.7 L431.6,78.7 L446.4,4.5 Z" id="aikomail-copy-4"></path>
        </g>
    </g>
</svg>