<?xml version="1.0" encoding="UTF-8"?>
<svg width="20px" height="20px" viewBox="0 0 20 20" version="1.1" xmlns="http://www.w3.org/2000/svg" xmlns:xlink="http://www.w3.org/1999/xlink">
    <!-- Generator: Sketch 51.3 (57544) - http://www.bohemiancoding.com/sketch -->
    <title>no-internet</title>
    <desc>Created with Sketch.</desc>
    <defs></defs>
    <g id="Page-1" stroke="none" stroke-width="1" fill="none" fill-rule="evenodd">
        <g id="no-internet" transform="translate(-2.000000, -2.000000)">
            <polygon id="Shape" points="0 0 24 0 24 24 0 24"></polygon>
            <path d="M12,18 L12.01,18" id="Shape" stroke="#000000" stroke-width="2" stroke-linecap="round" stroke-linejoin="round"></path>
            <path d="M9.172,15.172 C10.7339994,13.6104722 13.2660006,13.6104722 14.828,15.172" id="Shape" stroke="#000000" stroke-width="2" stroke-linecap="round" stroke-linejoin="round"></path>
            <path d="M6.343,12.343 C7.40343141,11.279569 8.74297072,10.5376917 10.207,10.203 M14.37,10.358 C15.6126454,10.7460312 16.7412398,11.432733 17.657,12.358" id="Shape" stroke="#000000" stroke-width="2" stroke-linecap="round" stroke-linejoin="round"></path>
            <path d="M3.515,9.515 C4.53843886,8.48942716 5.73914631,7.65767298 7.059,7.06 M10.16,6.14 C13.9428176,5.553442 17.7784948,6.80686331 20.485,9.514" id="Shape" stroke="#000000" stroke-width="2" stroke-linecap="round" stroke-linejoin="round"></path>
            <path d="M3,3 L21,21" id="Shape" stroke="#000000" stroke-width="2" stroke-linecap="round" stroke-linejoin="round"></path>
        </g>
    </g>
</svg>