<?xml version="1.0" encoding="UTF-8"?>
<svg width="512px" height="458px" viewBox="0 0 512 458" version="1.1" xmlns="http://www.w3.org/2000/svg" xmlns:xlink="http://www.w3.org/1999/xlink">
    <!-- Generator: Sketch 51.3 (57544) - http://www.bohemiancoding.com/sketch -->
    <title>reply</title>
    <desc>Created with Sketch.</desc>
    <defs></defs>
    <g id="Page-1" stroke="none" stroke-width="1" fill="none" fill-rule="evenodd">
        <g id="reply" fill="#000000" fill-rule="nonzero">
            <path d="M496.5,206.842 C465.659,130.136 382.388,91.782 246.677,91.782 L182.724,91.782 L182.724,18.693 C182.724,13.741 180.915,9.458 177.3,5.843 C173.683,2.226 169.404,0.417 164.453,0.417 C159.501,0.417 155.218,2.226 151.603,5.843 L5.424,152.021 C1.809,155.641 0,159.922 0,164.871 C0,169.819 1.809,174.1 5.424,177.718 L151.604,323.9 C155.223,327.513 159.506,329.328 164.454,329.328 C169.401,329.328 173.683,327.514 177.301,323.9 C180.917,320.286 182.725,316.002 182.725,311.052 L182.725,237.958 L246.678,237.958 C265.327,237.958 282.027,238.526 296.777,239.666 C311.526,240.809 326.19,242.855 340.745,245.809 C355.309,248.759 367.969,252.8 378.724,257.944 C389.477,263.088 399.518,269.7 408.846,277.786 C418.175,285.88 425.789,295.486 431.693,306.625 C437.589,317.761 442.206,330.936 445.539,346.164 C448.865,361.393 450.536,378.62 450.536,397.839 C450.536,408.305 450.057,420.015 449.108,432.957 C449.108,434.094 448.872,436.332 448.393,439.665 C447.92,442.998 447.681,445.517 447.681,447.227 C447.681,450.078 448.489,452.459 450.104,454.363 C451.726,456.265 453.964,457.214 456.818,457.214 C459.864,457.214 462.526,455.599 464.812,452.361 C466.14,450.65 467.373,448.555 468.522,446.078 C469.665,443.607 470.952,440.753 472.376,437.516 C473.807,434.279 474.806,432.003 475.374,430.668 C499.544,376.43 511.632,333.51 511.632,301.912 C511.63,264.039 506.589,232.344 496.5,206.842 Z" id="Shape"></path>
        </g>
    </g>
</svg>