<svg width="1336" height="1262" viewBox="0 0 1336 1262" fill="none" xmlns="http://www.w3.org/2000/svg">
<path d="M484.743 1.02345C406.883 9.20621 333.486 67.9732 309.434 141.37C305.714 153.272 304.474 154.512 296.044 156C278.934 159.223 249.675 171.869 230.086 184.763C163.384 228.653 118.999 308.993 115.279 393.3L113.792 422.311L103.129 429.75C87.5075 441.156 56.5122 472.896 43.8662 490.749C-22.8357 584.231 -12.6692 706.724 68.9103 792.023L84.284 808.14L82.3003 820.539C74.3655 866.908 85.7718 926.914 111.064 972.539C148.506 1040.98 218.432 1093.05 287.613 1104.21C305.466 1107.18 307.946 1108.17 307.946 1113.88C307.946 1116.11 311.665 1126.52 316.129 1136.69C348.364 1210.58 424.24 1260.92 503.836 1261.17C536.815 1261.42 557.892 1256.46 588.143 1241.58C607.484 1231.91 615.419 1226.2 632.776 1208.6C644.679 1196.95 656.829 1183.8 660.3 1179.09L666.251 1170.91L675.922 1184.8C699.974 1219.76 743.12 1248.77 784.033 1257.2C806.598 1261.91 849.248 1260.67 873.3 1254.47C907.767 1245.3 946.201 1223.97 973.477 1198.43C999.017 1174.63 1014.64 1150.58 1031.5 1109.17C1033.48 1104.21 1036.46 1102.22 1043.65 1100.74C1057.29 1098.26 1092 1081.39 1109.61 1068.75C1174.57 1022.38 1217.97 938.569 1217.97 859.965V839.384L1234.83 825.994C1244 818.555 1260.62 802.933 1271.53 791.279C1358.81 697.797 1356.83 566.873 1266.57 468.184L1250.7 450.579L1251.94 417.352C1253.43 378.918 1249.71 353.378 1237.56 319.407C1206.07 232.62 1120.52 162.695 1033.48 153.024L1016.62 151.041L1011.91 137.651C995.049 89.5459 952.152 43.177 902.807 19.6206C862.142 0.527528 811.805 -4.92766 770.891 5.73472C737.169 14.6614 714.356 28.2993 685.096 57.5588L659.556 83.0989L655.589 77.3958C646.414 64.2538 623.106 41.9372 606.492 30.7789C570.538 6.72658 528.632 -3.43987 484.743 1.02345ZM541.774 106.159C561.115 115.582 583.184 139.882 595.334 165.422C607.732 190.962 618.395 225.925 619.882 245.018C620.874 259.4 620.626 259.648 614.923 258.16C611.948 257.168 599.302 255.185 586.903 253.697C548.221 248.986 503.092 254.441 462.178 269.319L441.102 277.005L429.199 263.615C422.505 256.177 413.578 243.531 409.115 235.348C401.428 221.214 400.932 218.982 400.932 195.674C400.932 172.861 401.428 169.886 408.123 157.736C435.647 108.391 497.637 84.3387 541.774 106.159ZM320.096 275.022C325.799 286.676 336.958 304.281 344.892 314.2L359.274 332.301L343.405 350.65C324.311 372.719 307.698 397.763 297.779 418.592C279.182 457.77 298.771 494.716 338.197 494.468C352.331 494.22 367.953 487.029 375.392 476.863C378.863 472.152 386.054 460.002 391.261 449.835C398.452 435.949 407.131 425.039 424.488 407.682C451.02 381.15 466.89 370.735 498.133 359.825C516.978 353.378 524.169 352.138 550.949 351.394C574.753 350.65 586.16 351.394 600.541 354.866L619.139 359.329L619.882 693.334L620.378 1027.34L610.212 1057.84C597.566 1096.27 586.16 1118.09 569.794 1135.2C551.941 1153.8 534.831 1161.98 511.027 1163.47C460.691 1166.45 413.082 1132.48 400.684 1084.62C395.973 1066.02 397.46 1052.14 406.387 1032.05C412.338 1018.41 413.578 1017.42 433.167 1007.5C482.015 983.202 524.913 941.544 552.685 891.704C575.001 851.782 588.639 803.429 589.135 763.259C589.383 740.695 588.887 737.471 583.184 729.536C569.05 708.46 542.766 701.765 519.706 712.675C502.844 720.858 496.645 732.512 492.678 763.011C487.223 804.669 479.536 827.482 460.691 856.493C430.439 903.11 381.343 932.865 324.063 939.808C304.97 942.04 300.507 943.776 289.597 953.446C278.934 962.621 273.231 974.771 273.231 988.161C273.231 993.616 272.487 997.832 271.495 997.832C267.776 997.832 246.203 983.946 233.805 973.283C210.001 953.198 199.586 930.386 188.676 873.603C184.213 849.55 183.469 840.623 184.957 812.356C186.444 784.584 185.948 778.385 182.477 771.442C180.245 767.227 165.864 751.109 150.738 736.231C129.165 715.155 120.982 704.988 114.039 691.598C90.4831 645.477 89.7392 610.019 111.064 566.625C122.222 544.309 150.49 514.553 179.749 494.468C192.396 485.79 201.074 477.855 205.29 470.912C210.745 461.241 211.241 458.018 211.241 427.766C211.241 389.828 214.216 378.918 232.813 346.931C253.642 310.728 299.267 253.945 307.45 253.945C308.69 253.945 314.393 263.367 320.096 275.022Z" fill="black"/>
<path d="M1039.19 353.874C1018.61 364.784 1005.96 389.085 999.513 430.99C996.041 452.315 998.273 520.009 1003.23 553.98C1010.18 600.844 1018.11 638.287 1020.59 637.543C1024.8 636.055 1049.85 605.308 1058.78 590.43C1088.53 541.086 1104.65 473.64 1098.95 423.551C1091.75 359.577 1072.17 336.517 1039.19 353.874Z" fill="black"/>
<path fill-rule="evenodd" clip-rule="evenodd" d="M381.336 744.367C376.056 770.568 350.529 787.786 323.869 782.29C297.691 776.889 280.392 751.243 285.765 724.561C295.122 678.42 285.649 632.822 262.788 595.836C238.955 557.408 200.864 526.921 153.957 512.443C128.241 504.633 113.811 477.053 121.691 451.614C129.376 425.886 156.847 411.549 182.277 419.552C252.494 441.367 309.436 486.809 345.237 544.835C381.13 602.379 395.881 672.507 381.336 744.367Z" fill="black"/>
</svg>
