<?xml version="1.0" encoding="UTF-8"?>
<svg width="20px" height="13px" viewBox="0 0 20 13" version="1.1" xmlns="http://www.w3.org/2000/svg" xmlns:xlink="http://www.w3.org/1999/xlink">
    <!-- Generator: Sketch 51.3 (57544) - http://www.bohemiancoding.com/sketch -->
    <title>signature</title>
    <desc>Created with Sketch.</desc>
    <defs></defs>
    <g id="Page-1" stroke="none" stroke-width="1" fill="none" fill-rule="evenodd">
        <g id="signature" transform="translate(-2.000000, -5.000000)">
            <polygon id="Shape" points="0 0 24 0 24 24 0 24"></polygon>
            <path d="M3,17 C6.333,13.667 8,11 8,9 C8,6 7,6 6,6 C5,6 3.968,7.085 4,9 C4.034,11.048 5.658,13.877 6.5,15 C8,17 9,17.5 10,16 L12,13 C12.333,15.667 13.333,17 15,17 C15.53,17 17.639,15 18,15 C18.517,15 19.517,15.667 21,17" id="Shape" stroke="#000000" stroke-width="2" stroke-linecap="round" stroke-linejoin="round"></path>
        </g>
    </g>
</svg>