<?xml version="1.0" encoding="UTF-8"?>
<svg width="20px" height="20px" viewBox="0 0 20 20" version="1.1" xmlns="http://www.w3.org/2000/svg" xmlns:xlink="http://www.w3.org/1999/xlink">
    <!-- Generator: Sketch 51.3 (57544) - http://www.bohemiancoding.com/sketch -->
    <title>unlink</title>
    <desc>Created with Sketch.</desc>
    <defs></defs>
    <g id="Page-1" stroke="none" stroke-width="1" fill="none" fill-rule="evenodd">
        <g id="unlink" transform="translate(-2.000000, -2.000000)">
            <polygon id="Shape" points="0 0 24 0 24 24 0 24"></polygon>
            <path d="M10,14.0355339 C10.6583113,14.7074201 11.5593593,15.0860441 12.5,15.0860441 C13.4406407,15.0860441 14.3416887,14.7074201 15,14.0355339 L19,10.0355339 C20.3807118,8.65482199 20.3807118,6.41624577 19,5.03553391 C17.6192881,3.65482205 15.3807119,3.65482203 14,5.03553387 L13.5,5.53553387" id="Shape" stroke="#000000" stroke-width="2" stroke-linecap="round" stroke-linejoin="round"></path>
            <path d="M14.0355339,10.0505103 C13.3772226,9.37862406 12.4761746,9 11.5355339,9 C10.5948932,9 9.69384524,9.37862406 9.03553391,10.0505103 L5.03553391,14.0505103 C3.65482203,15.4312221 3.65482203,17.6697984 5.03553391,19.0505103 C6.41624578,20.4312221 8.65482203,20.4312221 10.0355339,19.0505103 L10.5355339,18.5505103" id="Shape" stroke="#000000" stroke-width="2" stroke-linecap="round" stroke-linejoin="round"></path>
            <path d="M19,16 L21,16" id="Shape" stroke="#000000" stroke-width="2" stroke-linecap="round" stroke-linejoin="round"></path>
            <path d="M3,8 L5,8" id="Shape" stroke="#000000" stroke-width="2" stroke-linecap="round" stroke-linejoin="round"></path>
            <path d="M8,3 L8,5" id="Shape" stroke="#000000" stroke-width="2" stroke-linecap="round" stroke-linejoin="round"></path>
        </g>
    </g>
</svg>